<?xml version="1.0" encoding="UTF-8"?><svg id="Layer_2" xmlns="http://www.w3.org/2000/svg" xmlns:xlink="http://www.w3.org/1999/xlink" viewBox="0 0 1024 1024"><defs><style>.cls-1{fill:#d8d6cd;}.cls-2{fill:url(#linear-gradient);}</style><linearGradient id="linear-gradient" x1="68.08" y1="955.92" x2="955.92" y2="68.08" gradientUnits="userSpaceOnUse"><stop offset="0" stop-color="#630781"/><stop offset="1" stop-color="#ec065d"/></linearGradient><symbol id="Icon" viewBox="0 0 1024 1024"><g><path id="App_Icon_Placeholder" class="cls-2" d="m356.99,0h310c102.81,0,154.19,0,209.53,17.49,60.42,21.99,108,69.58,129.98,129.99,17.5,55.34,17.5,106.73,17.5,209.53v309.98c0,102.8,0,154.19-17.5,209.53-21.98,60.42-69.57,108-129.98,129.98-55.33,17.5-106.72,17.5-209.53,17.5h-310c-102.79,0-154.18,0-209.51-17.5-60.42-21.98-108-69.57-129.98-129.98C0,821.18,0,769.79,0,666.99v-309.98c0-102.79,0-154.18,17.5-209.53C39.48,87.07,87.07,39.48,147.48,17.49,202.82,0,254.2,0,356.99,0h0"/><path class="cls-1" d="m378.06,97.19c10.66-3.29,23.35,4.7,24.29,15.99.63,52.82.16,105.64.31,158.46v361.6c-.16,7.05,3.45,14.26,9.56,17.71,29.78,17.55,59.87,34.8,89.66,52.35,5.96,3.29,13.64,4.39,19.59.63,30.56-17.87,61.29-35.58,91.85-53.76,6.43-3.6,8.78-11.29,8.78-18.34v-102.19c.16-7.37-3.6-14.73-10.03-18.34-28.84-16.77-57.68-33.7-86.52-50.31-6.43-3.76-13.17-9.56-13.32-17.71-.16-50,0-100.16,0-150.16,0-13.17,15.83-21.94,27.59-16.93,79.31,46.87,159.09,92.95,238.56,139.66,5.96,3.76,8.62,10.97,8.62,17.71v295.61c.16,7.05-3.29,14.26-9.56,17.87-83.07,48.75-166.3,97.02-249.37,145.77-4.55,2.66-9.09,6.11-14.73,5.96-5.17.47-9.87-1.72-13.95-4.55-83.86-49.06-167.71-97.96-251.57-147.02-5.96-3.45-9.87-10.19-9.87-16.93V189.98c.16-6.43,3.13-13.32,8.78-16.77,42.48-24.76,84.8-49.69,127.27-74.29,1.41-.63,2.66-1.41,4.08-1.72Z"/></g></symbol></defs><g id="App_Icon_Kit_B"><g id="App_Icon_and_Badge"><g id="Main"><use width="1024" height="1024" xlink:href="#Icon"/></g></g></g></svg>