<?xml version="1.0" encoding="utf-8"?>
<!-- Generator: Adobe Illustrator 27.1.1, SVG Export Plug-In . SVG Version: 6.00 Build 0)  -->
<svg version="1.1" id="Layer_1" xmlns="http://www.w3.org/2000/svg" xmlns:xlink="http://www.w3.org/1999/xlink" x="0px" y="0px"
	 viewBox="0 0 768 768" style="enable-background:new 0 0 768 768;" xml:space="preserve">
<style type="text/css">
	.st0{fill:#46BFEE;}
	.st1{fill:#16202A;}
	.st2{fill:#71C9F7;}
	.st3{fill:#193240;}
	.st4{fill:#13202B;}
</style>
<rect x="0" y="809.8" class="st0" width="768" height="768"/>
<rect x="1881" y="0" class="st1" width="768" height="768"/>
<rect x="1881" y="156" class="st2" width="768" height="156"/>
<g>
	<g>
		<path class="st1" d="M2197.4,297.3h-18.8v-97.8h17l2,15c3.1-5.6,7.5-10,13.3-13.1c5.8-3.1,12.2-4.7,19.1-4.7
			c12.8,0,22.3,3.7,28.4,11c6.1,7.3,9.2,17.3,9.2,29.8v59.8h-18.8v-55.6c0-9.9-2.1-17-6.4-21.3c-4.3-4.3-10-6.5-17.2-6.5
			c-8.8,0-15.6,2.9-20.5,8.6c-4.9,5.7-7.3,13.4-7.3,23V297.3z"/>
		<path class="st1" d="M2287.2,248.3c0-10,2.2-18.9,6.6-26.6c4.4-7.7,10.4-13.8,18.1-18.2c7.7-4.4,16.4-6.6,26.3-6.6
			c9.9,0,18.6,2.2,26.2,6.6c7.6,4.4,13.6,10.5,18,18.2c4.4,7.7,6.6,16.6,6.6,26.6s-2.2,18.9-6.6,26.6c-4.4,7.7-10.4,13.8-18,18.2
			c-7.6,4.4-16.3,6.6-26.2,6.6c-9.9,0-18.6-2.2-26.3-6.6c-7.7-4.4-13.7-10.5-18.1-18.2C2289.4,267.2,2287.2,258.3,2287.2,248.3z
			 M2306.2,248.3c0,6.8,1.4,12.8,4.1,18c2.7,5.2,6.5,9.3,11.3,12.2c4.8,2.9,10.3,4.4,16.6,4.4c6.3,0,11.8-1.5,16.6-4.4
			c4.8-2.9,8.6-7,11.3-12.2c2.7-5.2,4.1-11.2,4.1-18c0-6.9-1.4-13-4.1-18.1c-2.7-5.1-6.5-9.2-11.3-12.1c-4.8-2.9-10.3-4.4-16.6-4.4
			c-6.3,0-11.8,1.5-16.6,4.4c-4.8,2.9-8.6,7-11.3,12.1C2307.5,235.4,2306.2,241.4,2306.2,248.3z"/>
		<path class="st1" d="M2401.8,268.9h18c0,4.9,1.8,8.8,5.4,11.7c3.6,2.9,8.5,4.3,14.6,4.3c6.7,0,11.8-1.3,15.4-3.9
			c3.6-2.6,5.4-6.1,5.4-10.5c0-3.2-1-5.9-2.9-8c-1.9-2.1-5.4-3.9-10.5-5.2l-17.2-4c-8.7-2.1-15.1-5.4-19.3-9.8
			c-4.2-4.4-6.3-10.2-6.3-17.4c0-6,1.6-11.2,4.7-15.6c3.1-4.4,7.5-7.8,13-10.2c5.5-2.4,11.9-3.6,19.1-3.6s13.4,1.3,18.7,3.8
			c5.3,2.5,9.4,6.1,12.4,10.6c3,4.5,4.6,9.9,4.7,16.2h-18c-0.1-5.1-1.8-9-5-11.8c-3.2-2.8-7.7-4.2-13.4-4.2
			c-5.9,0-10.4,1.3-13.6,3.8c-3.2,2.5-4.8,6-4.8,10.4c0,6.5,4.8,11,14.4,13.4l17.2,4.2c8.3,1.9,14.5,4.9,18.6,9.1
			c4.1,4.2,6.2,9.9,6.2,17.1c0,6.1-1.7,11.5-5,16.1c-3.3,4.6-7.9,8.1-13.7,10.6c-5.8,2.5-12.6,3.7-20.5,3.7
			c-11.5,0-20.6-2.8-27.4-8.4S2401.8,278.3,2401.8,268.9z"/>
		<path class="st1" d="M2489,199.5h57.2v15.8H2489V199.5z M2527,297.3h-18.8V168.9h18.8V297.3z"/>
		<path class="st1" d="M2619,198.7v17.2h-8.4c-8.9,0-16,2.6-21.1,7.7c-5.1,5.1-7.7,12.4-7.7,21.9v51.8H2563v-97.6h17.6l1.6,19.6
			h-1.8c1.3-6.4,4.5-11.6,9.6-15.7c5.1-4.1,11.4-6.1,19-6.1c1.7,0,3.4,0.1,4.9,0.3C2615.4,198,2617.1,198.3,2619,198.7z"/>
	</g>
</g>
<g>
	<g>
	</g>
</g>
<rect x="927.2" y="-18.2" class="st3" width="768" height="768"/>
<rect x="927.2" y="137.8" class="st0" width="768" height="156"/>
<g>
	<g>
		<path class="st4" d="M1243.6,279.1h-18.8v-97.8h17l2,15c3.1-5.6,7.5-10,13.3-13.1c5.8-3.1,12.2-4.7,19.1-4.7
			c12.8,0,22.3,3.7,28.4,11c6.1,7.3,9.2,17.3,9.2,29.8v59.8H1295v-55.6c0-9.9-2.1-17-6.4-21.3c-4.3-4.3-10-6.5-17.2-6.5
			c-8.8,0-15.6,2.9-20.5,8.6c-4.9,5.7-7.3,13.4-7.3,23V279.1z"/>
		<path class="st4" d="M1333.4,230.1c0-10,2.2-18.9,6.6-26.6c4.4-7.7,10.4-13.8,18.1-18.2c7.7-4.4,16.4-6.6,26.3-6.6
			c9.9,0,18.6,2.2,26.2,6.6c7.6,4.4,13.6,10.5,18,18.2c4.4,7.7,6.6,16.6,6.6,26.6s-2.2,18.9-6.6,26.6c-4.4,7.7-10.4,13.8-18,18.2
			c-7.6,4.4-16.3,6.6-26.2,6.6c-9.9,0-18.6-2.2-26.3-6.6c-7.7-4.4-13.7-10.5-18.1-18.2C1335.6,249,1333.4,240.1,1333.4,230.1z
			 M1352.4,230.1c0,6.8,1.4,12.8,4.1,18c2.7,5.2,6.5,9.3,11.3,12.2c4.8,2.9,10.3,4.4,16.6,4.4c6.3,0,11.8-1.5,16.6-4.4
			c4.8-2.9,8.6-7,11.3-12.2c2.7-5.2,4.1-11.2,4.1-18c0-6.9-1.4-13-4.1-18.1c-2.7-5.1-6.5-9.2-11.3-12.1c-4.8-2.9-10.3-4.4-16.6-4.4
			c-6.3,0-11.8,1.5-16.6,4.4c-4.8,2.9-8.6,7-11.3,12.1C1353.7,217.2,1352.4,223.2,1352.4,230.1z"/>
		<path class="st4" d="M1448,250.7h18c0,4.9,1.8,8.8,5.4,11.7c3.6,2.9,8.5,4.3,14.6,4.3c6.7,0,11.8-1.3,15.4-3.9
			c3.6-2.6,5.4-6.1,5.4-10.5c0-3.2-1-5.9-2.9-8c-1.9-2.1-5.4-3.9-10.5-5.2l-17.2-4c-8.7-2.1-15.1-5.4-19.3-9.8
			c-4.2-4.4-6.3-10.2-6.3-17.4c0-6,1.6-11.2,4.7-15.6c3.1-4.4,7.5-7.8,13-10.2c5.5-2.4,11.9-3.6,19.1-3.6s13.4,1.3,18.7,3.8
			c5.3,2.5,9.4,6.1,12.4,10.6c3,4.5,4.6,9.9,4.7,16.2h-18c-0.1-5.1-1.8-9-5-11.8c-3.2-2.8-7.7-4.2-13.4-4.2
			c-5.9,0-10.4,1.3-13.6,3.8c-3.2,2.5-4.8,6-4.8,10.4c0,6.5,4.8,11,14.4,13.4l17.2,4.2c8.3,1.9,14.5,4.9,18.6,9.1
			c4.1,4.2,6.2,9.9,6.2,17.1c0,6.1-1.7,11.5-5,16.1c-3.3,4.6-7.9,8.1-13.7,10.6c-5.8,2.5-12.6,3.7-20.5,3.7
			c-11.5,0-20.6-2.8-27.4-8.4S1448,260.1,1448,250.7z"/>
		<path class="st4" d="M1535.2,181.3h57.2v15.8h-57.2V181.3z M1573.2,279.1h-18.8V150.7h18.8V279.1z"/>
		<path class="st4" d="M1665.2,180.5v17.2h-8.4c-8.9,0-16,2.6-21.1,7.7c-5.1,5.1-7.7,12.4-7.7,21.9v51.8h-18.8v-97.6h17.6l1.6,19.6
			h-1.8c1.3-6.4,4.5-11.6,9.6-15.7c5.1-4.1,11.4-6.1,19-6.1c1.7,0,3.4,0.1,4.9,0.3C1661.6,179.8,1663.3,180.1,1665.2,180.5z"/>
	</g>
</g>
<rect x="927.2" y="-18.2" class="st4" width="768" height="156"/>
<g>
	<g>
	</g>
</g>
<g>
	
		<text transform="matrix(1.3886 0 0 1 59.9091 1027.0054)" style="font-family:'Ubuntu-Medium'; font-size:200px; letter-spacing:-8.6;">n</text>
	
		<text transform="matrix(1.3886 0 0 1 59.9091 1027.0054)" style="fill:none;stroke:#46BFEE;stroke-width:38; font-family:'Ubuntu-Medium'; font-size:200px; letter-spacing:-8.6;">n</text>
	
		<text transform="matrix(1.3886 0 0 1 59.9091 1027.0054)" class="st4" style="font-family:'Ubuntu-Medium'; font-size:200px; letter-spacing:-8.6;">n</text>
</g>
<g>
	
		<text transform="matrix(1.3886 0 0 1 188.1542 1027.0054)" style="font-family:'Ubuntu-Medium'; font-size:200px; letter-spacing:-8.6;">o</text>
	
		<text transform="matrix(1.3886 0 0 1 188.1542 1027.0054)" style="fill:none;stroke:#46BFEE;stroke-width:38; font-family:'Ubuntu-Medium'; font-size:200px; letter-spacing:-8.6;">o</text>
	
		<text transform="matrix(1.3886 0 0 1 188.1542 1027.0054)" class="st4" style="font-family:'Ubuntu-Medium'; font-size:200px; letter-spacing:-8.6;">o</text>
</g>
<g>
	
		<text transform="matrix(1.3886 0 0 1 336.6733 1027.0054)" style="font-family:'Ubuntu-Medium'; font-size:200px; letter-spacing:-8.6;">s</text>
	
		<text transform="matrix(1.3886 0 0 1 336.6733 1027.0054)" style="fill:none;stroke:#46BFEE;stroke-width:38; font-family:'Ubuntu-Medium'; font-size:200px; letter-spacing:-8.6;">s</text>
	
		<text transform="matrix(1.3886 0 0 1 336.6733 1027.0054)" class="st4" style="font-family:'Ubuntu-Medium'; font-size:200px; letter-spacing:-8.6;">s</text>
</g>
<g>
	
		<text transform="matrix(1.3886 0 0 1 469.7783 1027.0054)" style="font-family:'Ubuntu-Medium'; font-size:200px; letter-spacing:-8.6;">t</text>
	
		<text transform="matrix(1.3886 0 0 1 469.7783 1027.0054)" style="fill:none;stroke:#46BFEE;stroke-width:38; font-family:'Ubuntu-Medium'; font-size:200px; letter-spacing:-8.6;">t</text>
	
		<text transform="matrix(1.3886 0 0 1 469.7783 1027.0054)" class="st4" style="font-family:'Ubuntu-Medium'; font-size:200px; letter-spacing:-8.6;">t</text>
</g>
<g>
	
		<text transform="matrix(1.3886 0 0 1 600.2451 1027.0054)" style="font-family:'Ubuntu-Medium'; font-size:200px; letter-spacing:-8.6;">r</text>
	
		<text transform="matrix(1.3886 0 0 1 600.2451 1027.0054)" style="fill:none;stroke:#46BFEE;stroke-width:38; font-family:'Ubuntu-Medium'; font-size:200px; letter-spacing:-8.6;">r</text>
	
		<text transform="matrix(1.3886 0 0 1 600.2451 1027.0054)" class="st4" style="font-family:'Ubuntu-Medium'; font-size:200px; letter-spacing:-8.6;">r</text>
</g>
<rect x="927.2" y="824.9" class="st4" width="768" height="768"/>
<rect x="927.2" y="980.9" class="st0" width="768" height="156"/>
<g>
</g>
<g>
	<g>
	</g>
</g>
<rect x="2274.3" y="1237.7" style="fill:none;" width="4.5" height="2.3"/>
<rect x="1940" y="1260.3" style="fill:none;" width="4.5" height="0"/>
<g>
	<g>
		<path class="st4" d="M1213.4,1118.7h-13.8v-96.8h12l2,16.8c3.2-6.1,7.8-10.9,13.7-14.3c5.9-3.4,12.4-5.1,19.5-5.1
			c13.3,0,22.9,3.7,28.8,11c5.9,7.3,8.8,17.1,8.8,29.2v59.2h-13.8v-56.2c0-11.3-2.4-19.3-7.1-23.8c-4.7-4.5-11.1-6.8-19.1-6.8
			c-9.9,0-17.5,3.3-22.9,9.9c-5.4,6.6-8.1,15.4-8.1,26.3V1118.7z"/>
		<path class="st4" d="M1305.2,1070.3c0-10,2.1-18.8,6.4-26.4c4.3-7.6,10.1-13.6,17.6-18c7.5-4.4,15.9-6.6,25.2-6.6
			c9.5,0,17.9,2.2,25.3,6.6c7.4,4.4,13.2,10.4,17.5,18c4.3,7.6,6.4,16.4,6.4,26.4c0,9.7-2.1,18.4-6.4,26.1
			c-4.3,7.7-10.1,13.7-17.5,18.1c-7.4,4.4-15.8,6.6-25.3,6.6c-9.3,0-17.7-2.2-25.2-6.6c-7.5-4.4-13.3-10.4-17.6-18.1
			C1307.4,1088.7,1305.2,1080,1305.2,1070.3z M1319.2,1070.1c0,7.6,1.5,14.3,4.5,20.1s7.1,10.3,12.4,13.6c5.3,3.3,11.4,4.9,18.3,4.9
			c6.9,0,13-1.6,18.3-4.9c5.3-3.3,9.4-7.8,12.4-13.6s4.5-12.5,4.5-20.1c0-7.5-1.5-14.1-4.5-19.8c-3-5.7-7.1-10.3-12.4-13.6
			c-5.3-3.3-11.4-5-18.3-5c-6.9,0-13,1.7-18.3,5c-5.3,3.3-9.4,7.9-12.4,13.6C1320.7,1056,1319.2,1062.6,1319.2,1070.1z"/>
		<path class="st4" d="M1417.4,1091.5h13.2c0,5.6,2,10,6,13.3c4,3.3,9.3,4.9,16,4.9c7.5,0,13.3-1.5,17.5-4.5c4.2-3,6.3-7.1,6.3-12.3
			c0-4-1.1-7.2-3.4-9.6c-2.3-2.4-6.3-4.3-12-5.8l-16.6-4.2c-8.4-2.1-14.7-5.4-18.8-9.8c-4.1-4.4-6.2-9.9-6.2-16.4
			c0-5.6,1.5-10.5,4.4-14.7c2.9-4.2,7-7.4,12.3-9.7c5.3-2.3,11.4-3.4,18.3-3.4c6.8,0,12.7,1.2,17.8,3.6c5.1,2.4,9,5.8,11.9,10.1
			c2.9,4.3,4.4,9.5,4.5,15.5h-13.4c-0.1-5.7-2.1-10.1-5.8-13.2c-3.7-3.1-8.9-4.6-15.4-4.6c-6.8,0-12,1.4-15.7,4.2
			c-3.7,2.8-5.5,6.8-5.5,12c0,7.5,5.3,12.5,15.8,15.2l16.6,4.2c8.4,2.1,14.6,5.3,18.5,9.4c3.9,4.1,5.9,9.7,5.9,16.6
			c0,5.7-1.5,10.8-4.6,15.2c-3.1,4.4-7.4,7.8-12.9,10.1c-5.5,2.3-12,3.5-19.3,3.5c-10.8,0-19.4-2.7-25.8-8.1
			S1417.4,1100.4,1417.4,1091.5z"/>
		<path class="st4" d="M1501.6,1021.9h52.4v11.6h-52.4V1021.9z M1534.6,1118.7H1521V991.3h13.6V1118.7z"/>
		<path class="st4" d="M1622.6,1020.7v12.4h-7.6c-8.9,0-16,2.7-21.3,8.2c-5.3,5.5-7.9,12.9-7.9,22.2v55.2H1572v-96.8h13l1.2,19h-1.4
			c1.3-6.3,4.6-11.4,9.8-15.3c5.2-3.9,11.5-5.9,19-5.9c1.5,0,2.9,0.1,4.4,0.2C1619.5,1020,1621,1020.3,1622.6,1020.7z"/>
	</g>
</g>
<rect class="st4" width="768" height="768"/>
<rect y="156" class="st0" width="768" height="156"/>
<g>
</g>
<g>
	<g>
	</g>
</g>
<g>
	<g>
		<path class="st4" d="M286.2,293.8h-13.8V197h12l2,16.8c3.2-6.1,7.8-10.9,13.7-14.3c5.9-3.4,12.4-5.1,19.5-5.1
			c13.3,0,22.9,3.7,28.8,11c5.9,7.3,8.8,17.1,8.8,29.2v59.2h-13.8v-56.2c0-11.3-2.4-19.3-7.1-23.8c-4.7-4.5-11.1-6.8-19.1-6.8
			c-9.9,0-17.5,3.3-22.9,9.9c-5.4,6.6-8.1,15.4-8.1,26.3V293.8z"/>
		<path class="st4" d="M378,245.4c0-10,2.1-18.8,6.4-26.4c4.3-7.6,10.1-13.6,17.6-18c7.5-4.4,15.9-6.6,25.2-6.6
			c9.5,0,17.9,2.2,25.3,6.6c7.4,4.4,13.2,10.4,17.5,18c4.3,7.6,6.4,16.4,6.4,26.4c0,9.7-2.1,18.4-6.4,26.1
			c-4.3,7.7-10.1,13.7-17.5,18.1c-7.4,4.4-15.8,6.6-25.3,6.6c-9.3,0-17.7-2.2-25.2-6.6c-7.5-4.4-13.3-10.4-17.6-18.1
			C380.1,263.8,378,255.1,378,245.4z M392,245.2c0,7.6,1.5,14.3,4.5,20.1s7.1,10.3,12.4,13.6c5.3,3.3,11.4,4.9,18.3,4.9
			c6.9,0,13-1.6,18.3-4.9c5.3-3.3,9.4-7.8,12.4-13.6s4.5-12.5,4.5-20.1c0-7.5-1.5-14.1-4.5-19.8c-3-5.7-7.1-10.3-12.4-13.6
			c-5.3-3.3-11.4-5-18.3-5c-6.9,0-13,1.7-18.3,5c-5.3,3.3-9.4,7.9-12.4,13.6C393.5,231.1,392,237.7,392,245.2z"/>
		<path class="st4" d="M490.2,266.6h13.2c0,5.6,2,10,6,13.3c4,3.3,9.3,4.9,16,4.9c7.5,0,13.3-1.5,17.5-4.5c4.2-3,6.3-7.1,6.3-12.3
			c0-4-1.1-7.2-3.4-9.6c-2.3-2.4-6.3-4.3-12-5.8l-16.6-4.2c-8.4-2.1-14.7-5.4-18.8-9.8c-4.1-4.4-6.2-9.9-6.2-16.4
			c0-5.6,1.5-10.5,4.4-14.7c2.9-4.2,7-7.4,12.3-9.7c5.3-2.3,11.4-3.4,18.3-3.4c6.8,0,12.7,1.2,17.8,3.6c5.1,2.4,9,5.8,11.9,10.1
			c2.9,4.3,4.4,9.5,4.5,15.5H548c-0.1-5.7-2.1-10.1-5.8-13.2c-3.7-3.1-8.9-4.6-15.4-4.6c-6.8,0-12,1.4-15.7,4.2
			c-3.7,2.8-5.5,6.8-5.5,12c0,7.5,5.3,12.5,15.8,15.2l16.6,4.2c8.4,2.1,14.6,5.3,18.5,9.4c3.9,4.1,5.9,9.7,5.9,16.6
			c0,5.7-1.5,10.8-4.6,15.2c-3.1,4.4-7.4,7.8-12.9,10.1c-5.5,2.3-12,3.5-19.3,3.5c-10.8,0-19.4-2.7-25.8-8.1
			C493.4,282.7,490.2,275.5,490.2,266.6z"/>
		<path class="st4" d="M574.4,197h52.4v11.6h-52.4V197z M607.4,293.8h-13.6V166.4h13.6V293.8z"/>
		<path class="st4" d="M695.4,195.8v12.4h-7.6c-8.9,0-16,2.7-21.3,8.2c-5.3,5.5-7.9,12.9-7.9,22.2v55.2h-13.8V197h13l1.2,19h-1.4
			c1.3-6.3,4.6-11.4,9.8-15.3c5.2-3.9,11.5-5.9,19-5.9c1.5,0,2.9,0.1,4.4,0.2C692.2,195.1,693.8,195.4,695.4,195.8z"/>
	</g>
</g>
</svg>
