<?xml version="1.0" encoding="utf-8"?>
<!-- Generator: Adobe Illustrator 27.1.1, SVG Export Plug-In . SVG Version: 6.00 Build 0)  -->
<svg version="1.2" baseProfile="tiny" id="Layer_1" xmlns="http://www.w3.org/2000/svg" xmlns:xlink="http://www.w3.org/1999/xlink"
	 x="0px" y="0px" viewBox="0 0 768 768" overflow="visible" xml:space="preserve">
<rect fill="#13202B" width="768" height="768"/>
<rect y="156" fill="#46BFEE" width="768" height="156"/>
<g>
	<g>
		<path fill="#13202B" d="M278.2,286h-20v-81h18.5l1.6,10.5c2.5-4,6.1-7.2,10.7-9.5s9.7-3.4,15.2-3.4c10.2,0,17.8,3,23,9
			s7.8,14.2,7.8,24.6V286h-20v-45.1c0-6.8-1.5-11.8-4.6-15.2c-3.1-3.3-7.2-5-12.5-5c-6.2,0-11.1,2-14.6,5.9s-5.2,9.2-5.2,15.7V286
			H278.2z"/>
		<path fill="#13202B" d="M355.3,245.3c0-8.4,1.9-15.8,5.6-22.2s8.9-11.4,15.4-15s14-5.4,22.3-5.4c8.4,0,15.9,1.8,22.4,5.4
			c6.5,3.6,11.6,8.6,15.3,15s5.6,13.8,5.6,22.2s-1.9,15.8-5.6,22.2s-8.8,11.4-15.3,15s-14,5.4-22.4,5.4c-8.3,0-15.7-1.8-22.3-5.4
			s-11.7-8.6-15.4-15C357.2,261.2,355.3,253.7,355.3,245.3z M375.3,245.3c0,4.9,1,9.2,3,13c2,3.7,4.8,6.6,8.2,8.7
			c3.4,2.1,7.5,3.1,12.1,3.1s8.6-1,12.1-3.1s6.2-5,8.2-8.7c2-3.7,3-8,3-13s-1-9.4-3-13c-2-3.7-4.7-6.5-8.2-8.6s-7.5-3.1-12.1-3.1
			s-8.6,1-12.1,3.1c-3.4,2.1-6.2,4.9-8.2,8.6S375.3,240.3,375.3,245.3z"/>
		<path fill="#13202B" d="M456.8,261.4h19c0.1,3.5,1.4,6.3,3.9,8.4s6,3.1,10.5,3.1c4.8,0,8.4-0.9,10.9-2.6s3.7-4.1,3.7-7.1
			c0-2-0.7-3.7-2-5.2s-3.8-2.7-7.4-3.4l-14.6-3.4c-7.3-1.6-12.8-4.3-16.3-8c-3.6-3.7-5.3-8.7-5.3-15.2c0-5.2,1.4-9.8,4.2-13.6
			c2.8-3.8,6.6-6.7,11.4-8.8c4.8-2,10.3-3,16.6-3c6,0,11.3,1.1,15.9,3.3s8.2,5.2,10.7,9.2c2.6,3.9,3.9,8.5,4,13.8h-19
			c0-3.5-1.1-6.3-3.3-8.3c-2.2-2-5.2-3-9.2-3s-7,0.9-9.2,2.6c-2.2,1.8-3.3,4.1-3.3,7.1c0,4.5,3.5,7.5,10.5,9.2l14.6,3.4
			c6.8,1.5,11.9,4,15.3,7.4s5.2,8.2,5.2,14.4c0,5.5-1.4,10.2-4.3,14.2c-2.8,4-6.8,7.1-12,9.2c-5.1,2.1-11,3.2-17.7,3.2
			c-10.1,0-18.1-2.5-24-7.4C459.8,275.8,456.8,269.4,456.8,261.4z"/>
		<path fill="#13202B" d="M536.2,205h51.2v16.7h-51.2V205z M571.8,286h-20V179.7h20V286z"/>
		<path fill="#13202B" d="M656.1,204.7v18.5h-7.4c-7.3,0-13.1,1.9-17.2,5.8c-4.2,3.9-6.2,9.8-6.2,17.6V286h-20v-80.9h18.9l1.6,16.7
			h-2c1.1-5.4,3.7-9.7,7.7-13.1c4-3.4,9.3-5.1,15.7-5.1c1.4,0,2.8,0.1,4.3,0.2C652.9,203.9,654.4,204.2,656.1,204.7z"/>
	</g>
</g>
</svg>
